<svg xmlns="http://www.w3.org/2000/svg" viewBox="0 0 519.9 432.3"><defs><style>.a{fill:#ffffff;}</style></defs><path class="a" d="M272.78,37.21a43.09,43.09,0,0,1,11.36,25.08c1.87,21-13.47,35-15.27,36.61a44.23,44.23,0,0,1-9.71-22c-1.65-12.1,2.4-21.39,4.33-25.68A52.52,52.52,0,0,1,272.78,37.21Z"/><path class="a" d="M305,100.44a50,50,0,0,1-2.61,24.46c-2,5.21-5,13.27-13.31,18.54a29.67,29.67,0,0,1-12.64,4.36A34.75,34.75,0,0,1,274.77,128a35.77,35.77,0,0,1,10.18-18A36.56,36.56,0,0,1,305,100.44Z"/><path class="a" d="M313.5,152.54a32.92,32.92,0,0,1-13.15,31.77,37.2,37.2,0,0,1-22.19,7.08,32.17,32.17,0,0,1,2.13-15.23,33.57,33.57,0,0,1,9.54-12.89A45.2,45.2,0,0,1,313.5,152.54Z"/><path class="a" d="M307.61,201.56A37.83,37.83,0,0,1,301,219.27a36.11,36.11,0,0,1-11.05,10.26,34.86,34.86,0,0,1-20,4.41A32.48,32.48,0,0,1,286.13,207,38.93,38.93,0,0,1,307.61,201.56Z"/><path class="a" d="M217.33,193.9a50.1,50.1,0,0,1,13.75,3.18c4,1.55,8.8,3.42,13.39,7.89,6.37,6.22,8.39,13.64,9.41,17.39a45.42,45.42,0,0,1,1.42,8.25,33.66,33.66,0,0,1-17-2.21,34.13,34.13,0,0,1-13.28-9.81C216.88,208.61,217.15,197,217.33,193.9Z"/><path class="a" d="M260.93,188.27a40.54,40.54,0,0,0-6.1-19,42.25,42.25,0,0,0-15.77-14.35,50.52,50.52,0,0,0-19.71-6.36,60.67,60.67,0,0,0,4.74,18.12c2.36,5.41,4.39,10.06,9.27,14.34a32.57,32.57,0,0,0,18,7.58A34.13,34.13,0,0,0,260.93,188.27Z"/><path class="a" d="M259.51,146.68a46.65,46.65,0,0,0-8.46-20.48c-2.61-3.53-6.25-8.45-12.82-11.26-3.53-1.51-6.85-2-11.47-2.58a77.15,77.15,0,0,0-11.79-.69,145.41,145.41,0,0,0,8.64,14.23c3.89,5.64,6.46,9.33,11,13.32,3.52,3.13,6.67,5.92,11.74,7.39A25,25,0,0,0,259.51,146.68Z"/><path class="a" d="M248.4,102.15a32,32,0,0,0-5-13.83c-3.91-5.87-8.81-8.81-12.44-11a47.38,47.38,0,0,0-22.48-6.61,45.24,45.24,0,0,0,3.87,11.7,34.64,34.64,0,0,0,8.78,12.09,32.76,32.76,0,0,0,14.2,6.94A36.33,36.33,0,0,0,248.4,102.15Z"/><path class="a" d="M246.64,71.55a62.33,62.33,0,0,0,2.73-14.91c.26-4.44.47-7.91-.75-12.25A30.33,30.33,0,0,0,241,31.63a38.28,38.28,0,0,0-16.64-10.38,23.48,23.48,0,0,0-4.73,10,24.84,24.84,0,0,0,1.24,13.2C225.82,59.44,244.12,70.11,246.64,71.55Z"/><path class="a" d="M402.32,49.9c0,.4,0,.79,0,1.19s0,.62,0,.93c-.05,1.12-.11,2.23-.19,3.33,0,.43-.06.86-.1,1.29-.11,1.24-.24,2.46-.38,3.66-.06.54-.13,1.08-.21,1.61s-.11.78-.17,1.17-.15,1-.24,1.55-.17,1-.26,1.54c-.19,1-.38,2-.58,3-.08.41-.17.82-.26,1.22s-.14.64-.21,1c-.13.58-.26,1.16-.4,1.73-.61,2.5-1.27,4.87-1.95,7.12l-.39,1.25c-.39,1.25-.79,2.44-1.18,3.59-.27.77-.54,1.52-.8,2.24-.13.37-.26.72-.4,1.08-.26.7-.52,1.37-.77,2l-.15.39c-4.26-4.42-8.72-6.58-13.17-6.4a12.22,12.22,0,0,0-5.66,1.71A19,19,0,0,1,369,88.16c-4.61.92-8.95,1.79-13.2-1.47a19.44,19.44,0,0,1-5-6.17l-.51-.93c1.5-3,3.46-6.44,6.07-10.78.34-.58.7-1.17,1.07-1.77.85-1.4,1.76-2.88,2.74-4.47l1.21-2,3.85-6.18,1.71-2.73c1.61-2.58,3.1-4.92,4.47-7.09.91-1.45,1.78-2.82,2.59-4.14h0c2.25-3.65,4.16-6.91,5.81-10.27q.68-1.38,1.29-2.79a69.82,69.82,0,0,0,3-8.09A79.78,79.78,0,0,0,387.31,0a70.92,70.92,0,0,1,6.41,10.37c.7,1.39,1.41,2.89,2.09,4.49.51,1.2,1,2.46,1.49,3.78s.94,2.7,1.38,4.13a84.13,84.13,0,0,1,3,14.54A93.41,93.41,0,0,1,402.32,49.9Z"/><path class="a" d="M390.65,98a139.41,139.41,0,0,1-20.11,33.26c-.6.74-1.2,1.45-1.78,2.14-1.17,1.38-2.31,2.65-3.39,3.83-.54.59-1.07,1.16-1.59,1.7s-1,1.06-1.5,1.55l-19.5-7.75a120.32,120.32,0,0,1-.74-19.8l.06-1c0-.82.1-1.62.17-2.41.1-1.18.22-2.34.35-3.46,0-.37.09-.75.14-1.12s.09-.66.14-1q.38-2.7.89-5.17c.07-.37.15-.74.23-1.11.47-2.19,1-4.24,1.59-6.16.09-.32.19-.64.29-.95.29-.94.59-1.85.9-2.72l.13-.36a24,24,0,0,0,4.63,4.78c6.78,5.2,13.76,3.8,18.89,2.77A25.88,25.88,0,0,0,378,92.3a5.51,5.51,0,0,1,2.67-.92c2.87-.1,6,1.92,9.45,6Z"/><path class="a" d="M519.74,164.21a2.62,2.62,0,0,1-.23.48,1.27,1.27,0,0,1-.13.22,2.72,2.72,0,0,1-.34.42l-.26.24L485.93,193l-.5-.28A52,52,0,0,1,472.88,183c-4.79-5.11-7.18-9.86-9.51-14.48-3-6-6.14-12.23-14.31-17.69-6-4-10.74-5-15.35-6-4-.85-7.85-1.66-12.51-5a37.07,37.07,0,0,1-11.92-15l-.17-.37,35-29.29a2.44,2.44,0,0,1,3.14-.21l7,6.14a2.47,2.47,0,0,1-.09,3.46L429.74,132.4a3,3,0,0,0-.75,1.91,2,2,0,0,0,.85,1.7,2.56,2.56,0,0,0,3.19-.58l25.34-25.94a2.48,2.48,0,0,1,3.41-.4l57.48,52.7a1.86,1.86,0,0,1,.55.88A2.55,2.55,0,0,1,519.74,164.21Z"/><path class="a" d="M480.22,197.73l-.15.13-.22.2a1.9,1.9,0,0,0-.19.21l-18.34,21.85a2.54,2.54,0,0,1-3.59.57l-71.14-66.21a2.09,2.09,0,0,1-.2-.22,1,1,0,0,1-.16-.26,1.12,1.12,0,0,1-.17-.41,1.86,1.86,0,0,1-.08-.41,2.3,2.3,0,0,1,.07-.86,2.94,2.94,0,0,1,.6-1.18L404,130a42.89,42.89,0,0,0,13.09,15.52c5.84,4.19,10.78,5.23,15.13,6.16,4.11.87,8,1.69,12.92,5,6.62,4.43,9.09,9.33,11.94,15,2.41,4.8,5.14,10.24,10.66,16.13A57.52,57.52,0,0,0,480.22,197.73Z"/><path class="a" d="M376.91,157.2l-2.54,2.69c-2.83,3.41-5.38,7.71-5.91,12.62-.51,4.68,0,8.57,1.6,10.39,7.71,8.8,14.94,14.36,19.12,18a6.65,6.65,0,0,1,1,5.73,9.53,9.53,0,0,1-3.55,5.19c-12.13,10.28-21.94,19-29,25.51a174.12,174.12,0,0,0-13,12.71,183.56,183.56,0,0,0-17.22,22.86c-2.88-.2-5.81-.47-8.79-.84,15.46-40.23,26.82-70.4,31.11-82.22A119.35,119.35,0,0,0,354,175.41a113.89,113.89,0,0,0,2.81-19.76L336.89,148a225.81,225.81,0,0,0-12.38,22.14c-7,14.28-10.36,25-15.86,41.75-3.61,11-9.28,28.06-16.81,49.95-.36,1.44-.71,2.89-1.07,4.33a162.86,162.86,0,0,1-35.13-15.44c1.25-3.62,2.45-7,3.59-10.28,8.95-25.49,14.36-40.87,12.61-69.18-2.11-34.15-7-60.81-15.06-81.49-2.06-5.3-3.6-9.2-4.6-11.57-1.26-3-1.89-4.54-3.8-3.86S247,76.85,247.71,79l.4-.13c.72,1.66,2.13,5.14,4.94,12.39,7.88,20.29,12.72,46.55,14.8,80.29,1.69,27.5-3.61,42.59-12.4,67.6q-1.59,4.52-3.31,9.5a167.41,167.41,0,0,1-28.3-22.11l-4.28-4.16-5,3.23A656.32,656.32,0,0,1,140.83,267c-41.16,20-69,30-81.36,32.76-1.22.27-2.46.54-3.72.8-12.41,2.66-27.86,6-40,19.07C7,329,1.76,341.38.05,356.52l0,.42v60.19A15.09,15.09,0,0,0,15,432.2c25.13.08,50.41.1,75.66.1,38.16,0,76.24-.06,113.55-.12,62-.1,126.1-.21,189.13,0h.05a15.07,15.07,0,0,0,15.06-15.06V377.62c0-25-.68-38-2.7-51.44a220.31,220.31,0,0,0-15.56-54.13l-2.55-6-6.27,1.67a165.78,165.78,0,0,1-16.27,3.44c.3-.29.6-.6.91-.91A177.44,177.44,0,0,0,378,256.54c6.05-7.47,14.23-17.76,23.8-30.48a9.61,9.61,0,0,1,5-3.85,6.67,6.67,0,0,1,5.77.73c3.88,4,9.82,10.9,19,18.11,1.91,1.53,5.81,1.8,10.43,1,4.86-.81,9-3.6,12.26-6.62l2.54-2.69ZM15,357.79c1.39-11.7,5.33-21.12,11.73-28,7.65-8.25,17.42-11.29,27.24-13.53,8.93,6.25,20.45,27,21.61,56.87H15Zm378.41,59.37c-63.08-.19-127.2-.08-189.21,0s-126.09.21-189.13,0l-.07-.07v-35H393.46Zm-2.48-88.76c1.78,11.82,2.45,23.46,2.53,44.72H358.88c.63-15.62,4.75-30.74,11.52-42,5.14-8.56,11.31-14.33,17.87-16.84Q389.88,321.33,390.93,328.4Zm-4.85-22.91c-19.88,6.85-35,34.31-36.21,67.63H84.58c-1-26.33-9.44-47.93-19.83-59.25,5.51-1.38,17.4-4.86,37.49-13.08l10.34,18.75a13.91,13.91,0,1,0,9.94-4.19,14.23,14.23,0,0,0-2.94.31l-9.91-18c8.08-3.43,17.3-7.55,27.74-12.47L147.6,303.7a13.92,13.92,0,1,0,9.94-4.18,14.07,14.07,0,0,0-2.93.31l-10-18.06,2.73-1.32c7.88-3.83,16.18-8,25.23-12.77l9.8,17.78a13.92,13.92,0,1,0,9.94-4.18,14.23,14.23,0,0,0-2.94.31l-9.76-17.7c5.21-2.86,10.68-6,16.45-9.35,13.18,21.34,40,51.48,73.62,55.06a297.45,297.45,0,0,0,31.39,1.78c36.45,0,62.84-8.31,78.79-24.84Q383.46,295.95,386.08,305.49ZM116.6,329.27a5.92,5.92,0,1,1,5.92,5.92A5.93,5.93,0,0,1,116.6,329.27Zm35-15.83a5.92,5.92,0,1,1,5.92,5.92A5.93,5.93,0,0,1,151.62,313.44Zm34.81-18.24a5.92,5.92,0,1,1,5.92,5.92A5.93,5.93,0,0,1,186.43,295.2Zm180.31-9.07c-19.37,14.38-51.56,19.25-96.07,14.52-30.17-3.22-54.66-31-66.84-50.71q6.66-4,13.9-8.61a179.35,179.35,0,0,0,149,44.8Z"/></svg>