<svg xmlns="http://www.w3.org/2000/svg" viewBox="0 0 551.48 518.84">
    <defs>
        <style>.a{fill: linear-gradient(to right, #00f260, #0575e6);}</style>
    </defs>
    <path class="a" d="M8.79,452.89l-6-2v-1.15H20.67v1.15l-6,2V497l6,2v1.15H2.74V499l6-2Z" />
    <path class="a" d="M31.18,462.54l-5.12-1.8v-.94H55L54,469h-.93l-2.38-6.48h-14v16.92h8.5l2.16-5h1V487h-.87l-2.3-5h-8.5v15.41L43,499.12v1H26.06v-.93l5.12-1.8Z" />
    <path class="a" d="M85,462.68H76.39l-2.66,6.19h-.94l.58-9.07h28.8l.58,9.07h-1l-2.66-6.19H90.51v34.71l5.11,1.73v1H79.92v-.93l5.11-1.8Z" />
    <path class="a" d="M136,480.75H118v16.64l5.11,1.8v.93H107.35v-.93l5.11-1.8V462.54l-5.11-1.8v-.94h15.77v.94l-5.11,1.8v15.55h18V462.54l-5.11-1.8v-.94h15.77v.94l-5.19,1.8v34.85l5.19,1.8v.93H130.9v-.93l5.11-1.8Z" />
    <path class="a" d="M157,462.54l-5.11-1.8v-.94h29.3l-.93,9.29h-1l-1.94-6.62H162.5v15.62h9.29l2.24-5h1v12.67h-.93l-2.31-5H162.5v16.71h15.34l2.59-7h1v9.64H151.85v-.93l5.11-1.8Z" />
    <path class="a" d="M238.9,475.71H217.15V497l6,2v1.15H205.2V499l6.05-2V452.89l-6.05-2v-1.15h17.93v1.15l-6,2v19.8H238.9v-19.8l-6.05-2v-1.15h17.93v1.15l-6,2V497l6,2v1.15H232.85V499l6.05-2Z" />
    <path class="a" d="M289.58,485.58c0,8.14-4.39,15.12-14.68,15.12s-15.13-6.84-15.13-15.34V462.54l-5.11-1.73v-1h15.77v.94l-5.11,1.8v22.82c0,5.91,2.59,12,10.58,12,7.56,0,10.44-5.91,10.44-11.81v-23l-5.11-1.73v-1H294.7v.94l-5.12,1.8Z" />
    <path class="a" d="M304.2,462.54l-5.12-1.8v-.94h29.31l-.93,9.29h-1l-1.95-6.62H309.74v15.62H319l2.23-5h1v12.67h-.94l-2.3-5h-9.29v16.71h15.34l2.59-7h1v9.64h-29.6v-.93l5.12-1.8Z" />
    <path class="a" d="M358.49,452.89l-6.05-2v-1.15H386l-1.08,10.95h-1.08l-2.74-7.93h-16.7v21.61h10.15l2.52-6.27h1.23v15.56h-1.16l-2.59-6.27H364.39V497l7.34,1.87v1.22H352.44V499l6.05-2Z" />
    <path class="a" d="M395.42,462.54l-5.11-1.8v-.94h15.77v.94l-5.12,1.8v34.85l5.12,1.8v.93H390.31v-.93l5.11-1.8Z" />
    <path class="a" d="M423,462.68h-8.64l-2.67,6.19h-.93l.57-9.07h28.8l.58,9.07h-1L437,462.68h-8.57v34.71l5.11,1.73v1h-15.7v-.93l5.12-1.8Z" />
    <path class="a" d="M456.4,481.19c-5.68-2.81-9.43-5.76-9.43-11.6,0-7.12,5.33-10.36,12.53-10.36,4.61,0,8.64,1.22,10.58,2.52l-.79,9.36h-.86l-2.52-8a18.09,18.09,0,0,0-6.12-1c-5,0-7.71,2-7.71,6.48,0,3.52,2.16,5.4,7,7.92,9.29,4.68,12.81,6.91,12.81,13.39,0,7.2-5.9,10.8-14.11,10.8-4.17,0-8.93-.94-11.73-2.81l1.36-9.79h.8l2,8.42a18.94,18.94,0,0,0,7.35,1.3c6.26,0,9.21-2.52,9.21-6.62S464.11,484.93,456.4,481.19Z" />
    <path class="a" d="M304.37,37.21a43.09,43.09,0,0,1,11.35,25.08c1.87,21-13.47,35-15.27,36.61a44.23,44.23,0,0,1-9.71-22c-1.64-12.1,2.4-21.39,4.33-25.68A52.27,52.27,0,0,1,304.37,37.21Z" />
    <path class="a" d="M336.56,100.44A50,50,0,0,1,334,124.9c-2,5.21-5,13.27-13.31,18.54A29.67,29.67,0,0,1,308,147.8,34.78,34.78,0,0,1,306.36,128a35.69,35.69,0,0,1,10.18-18A36.51,36.51,0,0,1,336.56,100.44Z" />
    <path class="a" d="M345.09,152.54a32.95,32.95,0,0,1-13.16,31.77,37.18,37.18,0,0,1-22.19,7.08,32.43,32.43,0,0,1,2.13-15.23,33.68,33.68,0,0,1,9.54-12.89A45.19,45.19,0,0,1,345.09,152.54Z" />
    <path class="a" d="M339.2,201.56a37.87,37.87,0,0,1-6.67,17.71,36.24,36.24,0,0,1-11,10.26,34.91,34.91,0,0,1-20,4.41A32.54,32.54,0,0,1,317.71,207,39,39,0,0,1,339.2,201.56Z" />
    <path class="a" d="M248.91,193.9a49.94,49.94,0,0,1,13.75,3.18c4,1.55,8.81,3.42,13.39,7.89,6.37,6.22,8.39,13.64,9.41,17.39a43.73,43.73,0,0,1,1.42,8.25,33.61,33.61,0,0,1-16.94-2.21,34.07,34.07,0,0,1-13.29-9.81C248.46,208.61,248.74,197,248.91,193.9Z" />
    <path class="a" d="M292.51,188.27a40.54,40.54,0,0,0-6.1-19,42.24,42.24,0,0,0-15.76-14.35,50.62,50.62,0,0,0-19.71-6.36,60.6,60.6,0,0,0,4.73,18.12c2.36,5.41,4.39,10.06,9.27,14.34a32.57,32.57,0,0,0,18,7.58A34.13,34.13,0,0,0,292.51,188.27Z" />
    <path class="a" d="M291.09,146.68a46.61,46.61,0,0,0-8.45-20.48c-2.62-3.53-6.26-8.45-12.82-11.26-3.54-1.51-6.86-2-11.47-2.58a77.34,77.34,0,0,0-11.8-.69,149.46,149.46,0,0,0,8.64,14.23c3.89,5.64,6.47,9.33,11,13.32,3.52,3.13,6.67,5.92,11.74,7.39A25,25,0,0,0,291.09,146.68Z" />
    <path class="a" d="M280,102.15a31.69,31.69,0,0,0-5-13.83c-3.91-5.87-8.81-8.81-12.44-11a47,47,0,0,0-12.13-5.08A47.57,47.57,0,0,0,240,70.73a45.24,45.24,0,0,0,3.87,11.7,34.82,34.82,0,0,0,8.79,12.09,32.76,32.76,0,0,0,14.2,6.94A36.27,36.27,0,0,0,280,102.15Z" />
    <path class="a" d="M278.22,71.55A62.33,62.33,0,0,0,281,56.64c.27-4.44.47-7.91-.74-12.25a30.43,30.43,0,0,0-7.59-12.76A38.36,38.36,0,0,0,256,21.25a23.37,23.37,0,0,0-4.72,10,24.86,24.86,0,0,0,1.23,13.2C257.4,59.44,275.7,70.11,278.22,71.55Z" />
    <path class="a" d="M433.9,49.9c0,.4,0,.79,0,1.19s0,.62,0,.93c0,1.12-.11,2.23-.19,3.33,0,.43-.06.86-.1,1.29-.11,1.24-.24,2.46-.38,3.66-.06.54-.13,1.08-.21,1.61s-.11.78-.17,1.17-.15,1-.24,1.55-.17,1-.26,1.54c-.19,1-.38,2-.58,3-.08.41-.17.82-.26,1.22s-.14.64-.21,1c-.13.58-.26,1.16-.4,1.73-.61,2.5-1.27,4.87-1.95,7.12l-.39,1.25c-.39,1.25-.79,2.44-1.18,3.59-.27.77-.54,1.52-.8,2.24-.13.37-.26.72-.4,1.08-.26.7-.52,1.37-.77,2l-.15.39c-4.26-4.42-8.72-6.58-13.17-6.4a12.22,12.22,0,0,0-5.66,1.71,19,19,0,0,1-5.77,2.07c-4.61.92-9,1.79-13.2-1.47a19.44,19.44,0,0,1-5-6.17l-.51-.93c1.5-3,3.46-6.44,6.07-10.78.34-.58.7-1.17,1.07-1.77.85-1.4,1.76-2.88,2.74-4.47l1.21-2,3.85-6.18,1.71-2.73c1.61-2.58,3.1-4.92,4.47-7.09.91-1.45,1.78-2.82,2.59-4.14h0c2.25-3.65,4.16-6.91,5.81-10.27q.67-1.38,1.29-2.79a69.82,69.82,0,0,0,3-8.09A79.78,79.78,0,0,0,418.89,0a70.92,70.92,0,0,1,6.41,10.37c.7,1.39,1.41,2.89,2.09,4.49.51,1.2,1,2.46,1.49,3.78s.94,2.7,1.38,4.13a84.13,84.13,0,0,1,3,14.54A93.41,93.41,0,0,1,433.9,49.9Z" />
    <path class="a" d="M422.23,98a139.41,139.41,0,0,1-20.11,33.26c-.6.74-1.2,1.45-1.78,2.14-1.17,1.38-2.31,2.65-3.39,3.83-.54.59-1.07,1.16-1.59,1.7s-1,1.06-1.5,1.55l-19.5-7.75a120.32,120.32,0,0,1-.74-19.8l.06-1c0-.82.1-1.62.17-2.41.1-1.18.22-2.34.35-3.46,0-.37.09-.75.14-1.12s.09-.66.14-1q.38-2.7.89-5.17c.07-.37.15-.74.23-1.11.47-2.19,1-4.24,1.59-6.16.09-.32.19-.64.29-.95.29-.94.59-1.85.9-2.72l.13-.36a24,24,0,0,0,4.63,4.78C389.92,97.44,396.9,96,402,95a25.88,25.88,0,0,0,7.59-2.71,5.51,5.51,0,0,1,2.67-.92c2.87-.1,6,1.92,9.45,6Z" />
    <path class="a" d="M551.32,164.21a2.62,2.62,0,0,1-.23.48,1.27,1.27,0,0,1-.13.22,2.72,2.72,0,0,1-.34.42l-.26.24L517.51,193l-.5-.28A52,52,0,0,1,504.46,183c-4.79-5.11-7.18-9.86-9.51-14.48-3-6-6.14-12.23-14.31-17.69-6-4-10.74-5-15.35-6-4-.85-7.85-1.66-12.51-5a37.07,37.07,0,0,1-11.92-15l-.17-.37,35-29.29a2.44,2.44,0,0,1,3.14-.21l7,6.14a2.47,2.47,0,0,1-.09,3.46L461.32,132.4a3,3,0,0,0-.75,1.91,2,2,0,0,0,.85,1.7,2.56,2.56,0,0,0,3.19-.58L490,109.49a2.48,2.48,0,0,1,3.41-.4l57.48,52.7a1.86,1.86,0,0,1,.55.88A2.55,2.55,0,0,1,551.32,164.21Z" />
    <path class="a" d="M511.8,197.73l-.15.13-.22.2a1.9,1.9,0,0,0-.19.21L492.9,220.12a2.54,2.54,0,0,1-3.59.57l-71.14-66.21a2.09,2.09,0,0,1-.2-.22,1,1,0,0,1-.16-.26,1.12,1.12,0,0,1-.17-.41,1.86,1.86,0,0,1-.08-.41,2.3,2.3,0,0,1,.07-.86,2.94,2.94,0,0,1,.6-1.18L435.62,130a42.89,42.89,0,0,0,13.09,15.52c5.84,4.19,10.78,5.23,15.13,6.16,4.11.87,8,1.69,12.92,5,6.62,4.43,9.09,9.33,11.94,15,2.41,4.8,5.14,10.24,10.66,16.13A57.52,57.52,0,0,0,511.8,197.73Z" />
    <path class="a" d="M408.49,157.2,406,159.89c-2.83,3.41-5.38,7.71-5.91,12.62-.51,4.68,0,8.57,1.6,10.39,7.71,8.8,14.94,14.36,19.12,18a6.65,6.65,0,0,1,1,5.73,9.53,9.53,0,0,1-3.55,5.19c-12.13,10.28-21.94,19-29,25.51a174.12,174.12,0,0,0-13,12.71A183.56,183.56,0,0,0,359,272.92c-2.88-.2-5.81-.47-8.79-.84,15.46-40.23,26.82-70.4,31.11-82.22a119.35,119.35,0,0,0,4.33-14.45,113.89,113.89,0,0,0,2.81-19.76L368.47,148a225.81,225.81,0,0,0-12.38,22.14c-7,14.28-10.36,25-15.86,41.75-3.61,11-9.28,28.06-16.81,49.95-.36,1.44-.71,2.89-1.07,4.33a162.86,162.86,0,0,1-35.13-15.44c1.25-3.62,2.45-7,3.59-10.28,8.95-25.49,14.36-40.87,12.61-69.18-2.11-34.15-7-60.81-15.06-81.49-2.06-5.3-3.6-9.2-4.6-11.57-1.26-3-1.89-4.54-3.8-3.86s-1.36,2.52-.67,4.62l.4-.13c.72,1.66,2.13,5.14,4.94,12.39,7.88,20.29,12.72,46.55,14.8,80.29,1.69,27.5-3.61,42.59-12.4,67.6q-1.59,4.52-3.31,9.5a167.41,167.41,0,0,1-28.3-22.11l-4.28-4.16-5,3.23A656.32,656.32,0,0,1,172.41,267c-41.16,20-69,30-81.36,32.76-1.22.27-2.46.54-3.72.8-12.41,2.66-27.86,6-40,19.07-8.69,9.37-14,21.8-15.68,36.94l-.05.42v60.19a15.09,15.09,0,0,0,15,15.07c25.13.08,50.41.1,75.66.1,38.16,0,76.24-.06,113.55-.12,62-.1,126.1-.21,189.13,0H425a15.07,15.07,0,0,0,15.06-15.06V377.62c0-25-.68-38-2.7-51.44a220.31,220.31,0,0,0-15.56-54.13l-2.55-6L413,267.76a165.78,165.78,0,0,1-16.27,3.44c.3-.29.6-.6.91-.91a177.44,177.44,0,0,0,11.93-13.75c6-7.47,14.23-17.76,23.8-30.48a9.61,9.61,0,0,1,5-3.85,6.67,6.67,0,0,1,5.77.73c3.88,4,9.82,10.9,19,18.11,1.91,1.53,5.81,1.8,10.43,1,4.86-.81,9-3.6,12.26-6.62l2.54-2.69ZM46.58,357.79c1.39-11.7,5.33-21.12,11.73-28,7.65-8.25,17.42-11.29,27.24-13.53,8.93,6.25,20.45,27,21.61,56.87H46.58ZM425,417.16c-63.08-.19-127.2-.08-189.21,0s-126.09.21-189.13,0l-.07-.07v-35H425Zm-2.48-88.76c1.78,11.82,2.45,23.46,2.53,44.72H390.46c.63-15.62,4.75-30.74,11.52-42,5.14-8.56,11.31-14.33,17.87-16.84Q421.46,321.33,422.51,328.4Zm-4.85-22.91c-19.88,6.85-35,34.31-36.21,67.63H116.16c-1-26.33-9.44-47.93-19.83-59.25,5.51-1.38,17.4-4.86,37.49-13.08l10.34,18.75a13.91,13.91,0,1,0,9.94-4.19,14.23,14.23,0,0,0-2.94.31l-9.91-18c8.08-3.43,17.3-7.55,27.74-12.47l10.19,18.48a13.92,13.92,0,1,0,9.94-4.18,14.07,14.07,0,0,0-2.93.31l-10-18.06,2.73-1.32c7.88-3.83,16.18-8,25.23-12.77l9.8,17.78a13.92,13.92,0,1,0,9.94-4.18,14.23,14.23,0,0,0-2.94.31l-9.76-17.7c5.21-2.86,10.68-6,16.45-9.35,13.18,21.34,40,51.48,73.62,55.06a297.45,297.45,0,0,0,31.39,1.78c36.45,0,62.84-8.31,78.79-24.84Q415,295.95,417.66,305.49ZM148.18,329.27a5.92,5.92,0,1,1,5.92,5.92A5.93,5.93,0,0,1,148.18,329.27Zm35-15.83a5.92,5.92,0,1,1,5.92,5.92A5.93,5.93,0,0,1,183.2,313.44ZM218,295.2a5.92,5.92,0,1,1,5.92,5.92A5.93,5.93,0,0,1,218,295.2Zm180.31-9.07c-19.37,14.38-51.56,19.25-96.07,14.52-30.17-3.22-54.66-31-66.84-50.71q6.66-4,13.9-8.61a179.35,179.35,0,0,0,149,44.8Z" />
</svg>